{
    "accessors": [
        {
            "bufferView": 0,
            "componentType": 5126,
            "count": 352218,
            "max": [
                247.64625549316406,
                107.79261779785156,
                93.3176040649414
            ],
            "min": [
                -249.0139923095703,
                -0.8430380821228027,
                -93.3197250366211
            ],
            "type": "VEC3"
        },
        {
            "bufferView": 1,
            "componentType": 5126,
            "count": 352218,
            "type": "VEC3"
        },
        {
            "bufferView": 2,
            "componentType": 5126,
            "count": 352218,
            "type": "VEC2"
        },
        {
            "bufferView": 3,
            "componentType": 5125,
            "count": 352218,
            "type": "SCALAR"
        },
        {
            "bufferView": 4,
            "componentType": 5126,
            "count": 1104,
            "max": [
                -40.841941833496094,
                79.54241180419922,
                41.91204071044922
            ],
            "min": [
                -47.81675338745117,
                74.8694839477539,
                -41.91416931152344
            ],
            "type": "VEC3"
        },
        {
            "bufferView": 5,
            "componentType": 5126,
            "count": 1104,
            "type": "VEC3"
        },
        {
            "bufferView": 6,
            "componentType": 5125,
            "count": 1104,
            "type": "SCALAR"
        },
        {
            "bufferView": 7,
            "componentType": 5126,
            "count": 12366,
            "max": [
                201.53533935546875,
                98.96087646484375,
                83.46240234375
            ],
            "min": [
                -160.08441162109375,
                10.387395858764648,
                -83.46453094482422
            ],
            "type": "VEC3"
        },
        {
            "bufferView": 8,
            "componentType": 5126,
            "count": 12366,
            "type": "VEC3"
        },
        {
            "bufferView": 9,
            "componentType": 5125,
            "count": 12366,
            "type": "SCALAR"
        }
    ],
    "asset": {
        "generator": "Luxion KeyShot",
        "version": "2.0"
    },
    "bufferViews": [
        {
            "buffer": 0,
            "byteLength": 4226616,
            "byteOffset": 0,
            "byteStride": 12
        },
        {
            "buffer": 0,
            "byteLength": 4226616,
            "byteOffset": 4226616,
            "byteStride": 12
        },
        {
            "buffer": 0,
            "byteLength": 2817744,
            "byteOffset": 8453232,
            "byteStride": 8
        },
        {
            "buffer": 0,
            "byteLength": 1408872,
            "byteOffset": 11270976
        },
        {
            "buffer": 0,
            "byteLength": 13248,
            "byteOffset": 12679848,
            "byteStride": 12
        },
        {
            "buffer": 0,
            "byteLength": 13248,
            "byteOffset": 12693096,
            "byteStride": 12
        },
        {
            "buffer": 0,
            "byteLength": 4416,
            "byteOffset": 12706344
        },
        {
            "buffer": 0,
            "byteLength": 148392,
            "byteOffset": 12710760,
            "byteStride": 12
        },
        {
            "buffer": 0,
            "byteLength": 148392,
            "byteOffset": 12859152,
            "byteStride": 12
        },
        {
            "buffer": 0,
            "byteLength": 49464,
            "byteOffset": 13007544
        }
    ],
    "buffers": [
        {
            "byteLength": 13057008,
            "uri": "formula resources/formula.bin"
        }
    ],
    "cameras": [
        {
            "name": "active",
            "perspective": {
                "aspectRatio": 1,
                "yfov": 0.6911154697478635,
                "zfar": 1.1108438968658447,
                "znear": 0.5853548645973206
            },
            "type": "perspective"
        }
    ],
    "images": [
        {
            "uri": "formula resources/3.png"
        }
    ],
    "materials": [
        {
            "doubleSided": true,
            "pbrMetallicRoughness": {
                "baseColorTexture": {
                    "index": 0
                },
                "metallicFactor": 0,
                "roughnessFactor": 1
            }
        },
        {
            "doubleSided": true,
            "pbrMetallicRoughness": {
                "baseColorFactor": [
                    0,
                    0,
                    0,
                    1
                ],
                "metallicFactor": 0,
                "roughnessFactor": 1
            }
        },
        {
            "doubleSided": true,
            "pbrMetallicRoughness": {
                "baseColorFactor": [
                    0.5150229930877686,
                    0.5150229930877686,
                    0.5150219798088074,
                    1
                ],
                "metallicFactor": 0,
                "roughnessFactor": 0.5
            }
        }
    ],
    "meshes": [
        {
            "name": "node_id7-mesh",
            "primitives": [
                {
                    "attributes": {
                        "NORMAL": 1,
                        "POSITION": 0,
                        "TEXCOORD_0": 2
                    },
                    "indices": 3,
                    "material": 0,
                    "mode": 4
                }
            ]
        },
        {
            "name": "node_id7-mesh",
            "primitives": [
                {
                    "attributes": {
                        "NORMAL": 5,
                        "POSITION": 4
                    },
                    "indices": 6,
                    "material": 1,
                    "mode": 4
                }
            ]
        },
        {
            "name": "node_id7-mesh",
            "primitives": [
                {
                    "attributes": {
                        "NORMAL": 8,
                        "POSITION": 7
                    },
                    "indices": 9,
                    "material": 2,
                    "mode": 4
                }
            ]
        }
    ],
    "nodes": [
        {
            "camera": 0,
            "matrix": [
                0.6527817907146698,
                -1.786719856511354e-07,
                0.7575459927955626,
                0,
                0.1710316988287876,
                0.9741804940288812,
                -0.14737878047464578,
                0,
                -0.7379865050315857,
                0.22577056288719177,
                0.6359273195266724,
                0,
                -0.6258859038352966,
                0.24747157096862793,
                0.5393295884132385,
                1
            ],
            "name": "active"
        },
        {
            "mesh": 0,
            "name": "node_id7"
        },
        {
            "children": [
                1
            ],
            "matrix": [
                1.0308899879455566,
                0,
                0,
                0,
                0,
                1.0308899879455566,
                0,
                0,
                0,
                0,
                1.0308899879455566,
                0,
                0.7049880027770996,
                -55.126399993896484,
                256,
                1
            ],
            "name": "node_id7"
        },
        {
            "mesh": 1,
            "name": "node_id7"
        },
        {
            "mesh": 2,
            "name": "node_id7"
        },
        {
            "children": [
                3,
                4
            ],
            "matrix": [
                1.0308899879455566,
                0,
                0,
                0,
                0,
                1.0308899879455566,
                0,
                0,
                0,
                0,
                1.0308899879455566,
                0,
                0.7049880027770996,
                -55.126399993896484,
                256,
                1
            ],
            "name": "node_id7"
        },
        {
            "children": [
                5
            ],
            "name": "node_id7"
        },
        {
            "children": [
                2,
                6
            ],
            "matrix": [
                0.0010000000474974513,
                0,
                0,
                0,
                0,
                0.0010000000474974513,
                0,
                0,
                0,
                0,
                0.0010000000474974513,
                0,
                0,
                0,
                0,
                1
            ],
            "name": "node_id7"
        },
        {
            "children": [
                7
            ],
            "name": "root"
        },
        {
            "children": [
                8
            ],
            "name": "RootNode"
        },
        {
            "children": [
                9
            ],
            "matrix": [
                1,
                0,
                0,
                0,
                0,
                1,
                0,
                0,
                0,
                0,
                1,
                0,
                0,
                0.055995482951402664,
                -0.2559989094734192,
                1
            ],
            "name": "formula"
        },
        {
            "children": [
                10
            ],
            "name": "Default"
        }
    ],
    "samplers": [
        {
            "magFilter": 9729,
            "minFilter": 9987,
            "wrapS": 10497,
            "wrapT": 10497
        }
    ],
    "scenes": [
        {
            "nodes": [
                0,
                11
            ]
        }
    ],
    "textures": [
        {
            "sampler": 0,
            "source": 0
        }
    ]
}
 