{
  "asset": {
    "version": "2.0",
    "generator": "THREE.GLTFExporter"
  },
  "scenes": [
    {
      "nodes": [
        8
      ],
      "name": "AuxScene"
    }
  ],
  "scene": 0,
  "nodes": [
    {
      "matrix": [
        2.224126100540161,
        0,
        0,
        0,
        0,
        2.224126100540161,
        0,
        0,
        0,
        0,
        2.224126100540161,
        0,
        0.0004996720817871392,
        -130.97152709960938,
        540.5404663085938,
        1
      ],
      "name": "node_id11"
    },
    {
      "name": "node_id12",
      "mesh": 1
    },
    {
      "name": "node_id12",
      "mesh": 2
    },
    {
      "name": "node_id12",
      "mesh": 3
    },
    {
      "name": "node_id12",
      "mesh": 4
    },
    {
      "name": "node_id12",
      "mesh": 5
    },
    {
      "matrix": [
        1.1932565361291605e-10,
        0,
        0.001000000280328095,
        0,
        -2.2204456377280464e-19,
        0.0010000000474974513,
        2.649560524495694e-26,
        0,
        -0.001000000280328095,
        -2.2204461547158407e-19,
        1.1932565361291605e-10,
        0,
        0.5446904301643372,
        2.693385201283857e-15,
        0.544689416885376,
        1
      ],
      "name": "node_id12",
      "mesh": 0,
      "children": [
        0,
        1,
        2,
        3,
        4,
        5
      ]
    },
    {
      "name": "root",
      "children": [
        6
      ]
    },
    {
      "children": [
        7
      ]
    }
  ],
  "bufferViews": [
    {
      "buffer": 0,
      "byteOffset": 0,
      "byteLength": 261648,
      "target": 34962,
      "byteStride": 12
    },
    {
      "buffer": 0,
      "byteOffset": 261648,
      "byteLength": 261648,
      "target": 34962,
      "byteStride": 12
    },
    {
      "buffer": 0,
      "byteOffset": 523296,
      "byteLength": 174432,
      "target": 34962,
      "byteStride": 8
    },
    {
      "buffer": 0,
      "byteOffset": 697728,
      "byteLength": 43608,
      "target": 34963
    },
    {
      "buffer": 0,
      "byteOffset": 741336,
      "byteLength": 4608,
      "target": 34962,
      "byteStride": 12
    },
    {
      "buffer": 0,
      "byteOffset": 745944,
      "byteLength": 4608,
      "target": 34962,
      "byteStride": 12
    },
    {
      "buffer": 0,
      "byteOffset": 750552,
      "byteLength": 3072,
      "target": 34962,
      "byteStride": 8
    },
    {
      "buffer": 0,
      "byteOffset": 753624,
      "byteLength": 768,
      "target": 34963
    },
    {
      "buffer": 0,
      "byteOffset": 754392,
      "byteLength": 25704,
      "target": 34962,
      "byteStride": 12
    },
    {
      "buffer": 0,
      "byteOffset": 780096,
      "byteLength": 25704,
      "target": 34962,
      "byteStride": 12
    },
    {
      "buffer": 0,
      "byteOffset": 805800,
      "byteLength": 17136,
      "target": 34962,
      "byteStride": 8
    },
    {
      "buffer": 0,
      "byteOffset": 822936,
      "byteLength": 4284,
      "target": 34963
    },
    {
      "buffer": 0,
      "byteOffset": 827220,
      "byteLength": 25704,
      "target": 34962,
      "byteStride": 12
    },
    {
      "buffer": 0,
      "byteOffset": 852924,
      "byteLength": 25704,
      "target": 34962,
      "byteStride": 12
    },
    {
      "buffer": 0,
      "byteOffset": 878628,
      "byteLength": 17136,
      "target": 34962,
      "byteStride": 8
    },
    {
      "buffer": 0,
      "byteOffset": 895764,
      "byteLength": 4284,
      "target": 34963
    },
    {
      "buffer": 0,
      "byteOffset": 900048,
      "byteLength": 25704,
      "target": 34962,
      "byteStride": 12
    },
    {
      "buffer": 0,
      "byteOffset": 925752,
      "byteLength": 25704,
      "target": 34962,
      "byteStride": 12
    },
    {
      "buffer": 0,
      "byteOffset": 951456,
      "byteLength": 17136,
      "target": 34962,
      "byteStride": 8
    },
    {
      "buffer": 0,
      "byteOffset": 968592,
      "byteLength": 4284,
      "target": 34963
    },
    {
      "buffer": 0,
      "byteOffset": 972876,
      "byteLength": 25704,
      "target": 34962,
      "byteStride": 12
    },
    {
      "buffer": 0,
      "byteOffset": 998580,
      "byteLength": 25704,
      "target": 34962,
      "byteStride": 12
    },
    {
      "buffer": 0,
      "byteOffset": 1024284,
      "byteLength": 17136,
      "target": 34962,
      "byteStride": 8
    },
    {
      "buffer": 0,
      "byteOffset": 1041420,
      "byteLength": 4284,
      "target": 34963
    }
  ],
  "buffers": [
    {
      "byteLength": 1045704,
      "uri": "data:application/octet-stream;base64,"
    }
  ],
  "accessors": [
    {
      "bufferView": 0,
      "componentType": 5126,
      "count": 21804,
      "max": [
        256.00048828125,
        130.57168579101562,
        1088.5767822265625
      ],
      "min": [
        -255.99949645996094,
        -102.07502746582031,
        -0.0009789303876459599
      ],
      "type": "VEC3"
    },
    {
      "bufferView": 1,
      "componentType": 5126,
      "count": 21804,
      "max": [
        1,
        1,
        1
      ],
      "min": [
        -1,
        -1,
        -1
      ],
      "type": "VEC3"
    },
    {
      "bufferView": 2,
      "componentType": 5126,
      "count": 21804,
      "max": [
        0.9986356496810913,
        0.9974939823150635
      ],
      "min": [
        0.00039124488830566406,
        0.0014910697937011719
      ],
      "type": "VEC2"
    },
    {
      "bufferView": 3,
      "componentType": 5123,
      "count": 21804,
      "max": [
        21803
      ],
      "min": [
        0
      ],
      "type": "SCALAR"
    },
    {
      "bufferView": 4,
      "componentType": 5126,
      "count": 384,
      "max": [
        195.47950744628906,
        115.78253173828125,
        1020.6459350585938
      ],
      "min": [
        -195.47850036621094,
        -13.443994522094727,
        407.6897888183594
      ],
      "type": "VEC3"
    },
    {
      "bufferView": 5,
      "componentType": 5126,
      "count": 384,
      "max": [
        0.8290497660636902,
        0.9675639867782593,
        0.9127849340438843
      ],
      "min": [
        -0.8290497660636902,
        0.22822238504886627,
        -0.07045304775238037
      ],
      "type": "VEC3"
    },
    {
      "bufferView": 6,
      "componentType": 5126,
      "count": 384,
      "max": [
        0.9966380596160889,
        0.5224747657775879
      ],
      "min": [
        0.05948436260223389,
        0.15911048650741577
      ],
      "type": "VEC2"
    },
    {
      "bufferView": 7,
      "componentType": 5123,
      "count": 384,
      "max": [
        383
      ],
      "min": [
        0
      ],
      "type": "SCALAR"
    },
    {
      "bufferView": 8,
      "componentType": 5126,
      "count": 2142,
      "max": [
        223.9250030517578,
        22.843713760375977,
        902.475341796875
      ],
      "min": [
        156.08595275878906,
        -130.88177490234375,
        748.7496337890625
      ],
      "type": "VEC3"
    },
    {
      "bufferView": 9,
      "componentType": 5126,
      "count": 2142,
      "max": [
        1,
        1,
        1
      ],
      "min": [
        -1,
        -1,
        -1
      ],
      "type": "VEC3"
    },
    {
      "bufferView": 10,
      "componentType": 5126,
      "count": 2142,
      "max": [
        0.9976577162742615,
        0.9966292381286621
      ],
      "min": [
        0.690108060836792,
        0.5250741839408875
      ],
      "type": "VEC2"
    },
    {
      "bufferView": 11,
      "componentType": 5123,
      "count": 2142,
      "max": [
        2141
      ],
      "min": [
        0
      ],
      "type": "SCALAR"
    },
    {
      "bufferView": 12,
      "componentType": 5126,
      "count": 2142,
      "max": [
        -156.0849609375,
        22.843713760375977,
        902.475341796875
      ],
      "min": [
        -223.92401123046875,
        -130.88177490234375,
        748.7496337890625
      ],
      "type": "VEC3"
    },
    {
      "bufferView": 13,
      "componentType": 5126,
      "count": 2142,
      "max": [
        1,
        1,
        1
      ],
      "min": [
        -1,
        -1,
        -1
      ],
      "type": "VEC3"
    },
    {
      "bufferView": 14,
      "componentType": 5126,
      "count": 2142,
      "max": [
        0.9976577162742615,
        0.9966292381286621
      ],
      "min": [
        0.690108060836792,
        0.5250741839408875
      ],
      "type": "VEC2"
    },
    {
      "bufferView": 15,
      "componentType": 5123,
      "count": 2142,
      "max": [
        2141
      ],
      "min": [
        0
      ],
      "type": "SCALAR"
    },
    {
      "bufferView": 16,
      "componentType": 5126,
      "count": 2142,
      "max": [
        225.70855712890625,
        30.92687225341797,
        295.0892639160156
      ],
      "min": [
        154.30239868164062,
        -130.88177490234375,
        133.2803955078125
      ],
      "type": "VEC3"
    },
    {
      "bufferView": 17,
      "componentType": 5126,
      "count": 2142,
      "max": [
        1,
        1,
        1
      ],
      "min": [
        -1,
        -1,
        -1
      ],
      "type": "VEC3"
    },
    {
      "bufferView": 18,
      "componentType": 5126,
      "count": 2142,
      "max": [
        0.9976577162742615,
        0.9966292381286621
      ],
      "min": [
        0.690108060836792,
        0.5250741839408875
      ],
      "type": "VEC2"
    },
    {
      "bufferView": 19,
      "componentType": 5123,
      "count": 2142,
      "max": [
        2141
      ],
      "min": [
        0
      ],
      "type": "SCALAR"
    },
    {
      "bufferView": 20,
      "componentType": 5126,
      "count": 2142,
      "max": [
        -154.30140686035156,
        30.92687225341797,
        295.0892639160156
      ],
      "min": [
        -225.70758056640625,
        -130.88177490234375,
        133.2803955078125
      ],
      "type": "VEC3"
    },
    {
      "bufferView": 21,
      "componentType": 5126,
      "count": 2142,
      "max": [
        1,
        1,
        1
      ],
      "min": [
        -1,
        -1,
        -1
      ],
      "type": "VEC3"
    },
    {
      "bufferView": 22,
      "componentType": 5126,
      "count": 2142,
      "max": [
        0.9976577162742615,
        0.9966292381286621
      ],
      "min": [
        0.690108060836792,
        0.5250741839408875
      ],
      "type": "VEC2"
    },
    {
      "bufferView": 23,
      "componentType": 5123,
      "count": 2142,
      "max": [
        2141
      ],
      "min": [
        0
      ],
      "type": "SCALAR"
    }
  ],
  "materials": [
    {
      "pbrMetallicRoughness": {
        "baseColorFactor": [
          0.8,
          0.8,
          0.8,
          1
        ],
        "metallicFactor": 0.5,
        "roughnessFactor": 0.5,
        "baseColorTexture": {
          "index": 0
        }
      },
      "name": "Material_40"
    },
    {
      "pbrMetallicRoughness": {
        "baseColorFactor": [
          0,
          0,
          0,
          0.9965397923875432
        ],
        "metallicFactor": 0.5,
        "roughnessFactor": 0.5
      },
      "alphaMode": "BLEND",
      "name": "Material_41"
    },
    {
      "pbrMetallicRoughness": {
        "baseColorFactor": [
          0.8,
          0.8,
          0.8,
          1
        ],
        "metallicFactor": 0.5,
        "roughnessFactor": 0.5,
        "baseColorTexture": {
          "index": 0
        }
      },
      "name": "Material_42"
    },
    {
      "pbrMetallicRoughness": {
        "baseColorFactor": [
          0.8,
          0.8,
          0.8,
          1
        ],
        "metallicFactor": 0.5,
        "roughnessFactor": 0.5,
        "baseColorTexture": {
          "index": 0
        }
      },
      "name": "Material_43"
    },
    {
      "pbrMetallicRoughness": {
        "baseColorFactor": [
          0.8,
          0.8,
          0.8,
          1
        ],
        "metallicFactor": 0.5,
        "roughnessFactor": 0.5,
        "baseColorTexture": {
          "index": 0
        }
      },
      "name": "Material_44"
    },
    {
      "pbrMetallicRoughness": {
        "baseColorFactor": [
          0.8,
          0.8,
          0.8,
          1
        ],
        "metallicFactor": 0.5,
        "roughnessFactor": 0.5,
        "baseColorTexture": {
          "index": 0
        }
      },
      "name": "Material_45"
    }
  ],
  "textures": [
    {
      "sampler": 0,
      "source": 0
    }
  ],
  "samplers": [
    {
      "magFilter": 9729,
      "minFilter": 9987
    }
  ],
  "images": [
    {
      "mimeType": "image/png",
      "uri": "data:image/png;base64,"
    }
  ],
  "meshes": [
    {
      "primitives": [
        {
          "mode": 4,
          "attributes": {
            "POSITION": 0,
            "NORMAL": 1,
            "TEXCOORD_0": 2
          },
          "indices": 3,
          "material": 0
        }
      ]
    },
    {
      "primitives": [
        {
          "mode": 4,
          "attributes": {
            "POSITION": 4,
            "NORMAL": 5,
            "TEXCOORD_0": 6
          },
          "indices": 7,
          "material": 1
        }
      ]
    },
    {
      "primitives": [
        {
          "mode": 4,
          "attributes": {
            "POSITION": 8,
            "NORMAL": 9,
            "TEXCOORD_0": 10
          },
          "indices": 11,
          "material": 2
        }
      ]
    },
    {
      "primitives": [
        {
          "mode": 4,
          "attributes": {
            "POSITION": 12,
            "NORMAL": 13,
            "TEXCOORD_0": 14
          },
          "indices": 15,
          "material": 3
        }
      ]
    },
    {
      "primitives": [
        {
          "mode": 4,
          "attributes": {
            "POSITION": 16,
            "NORMAL": 17,
            "TEXCOORD_0": 18
          },
          "indices": 19,
          "material": 4
        }
      ]
    },
    {
      "primitives": [
        {
          "mode": 4,
          "attributes": {
            "POSITION": 20,
            "NORMAL": 21,
            "TEXCOORD_0": 22
          },
          "indices": 23,
          "material": 5
        }
      ]
    }
  ]
}