{
    "accessors": [
        {
            "bufferView": 0,
            "componentType": 5126,
            "count": 248064,
            "max": [
                9.537799835205078,
                0.2223999947309494,
                29.794300079345703
            ],
            "min": [
                -9.408900260925293,
                -0.19110000133514404,
                0.05009999871253967
            ],
            "type": "VEC3"
        },
        {
            "bufferView": 1,
            "componentType": 5126,
            "count": 248064,
            "type": "VEC3"
        },
        {
            "bufferView": 2,
            "componentType": 5125,
            "count": 248064,
            "type": "SCALAR"
        },
        {
            "bufferView": 3,
            "componentType": 5126,
            "count": 470700,
            "max": [
                12.695865631103516,
                16.387910842895508,
                3.3517305850982666
            ],
            "min": [
                -12.695865631103516,
                -16.387910842895508,
                -3.351732015609741
            ],
            "type": "VEC3"
        },
        {
            "bufferView": 4,
            "componentType": 5126,
            "count": 470700,
            "type": "VEC3"
        },
        {
            "bufferView": 5,
            "componentType": 5125,
            "count": 470700,
            "type": "SCALAR"
        },
        {
            "bufferView": 6,
            "componentType": 5126,
            "count": 9216,
            "max": [
                100,
                100,
                100
            ],
            "min": [
                -100,
                -100,
                -100
            ],
            "type": "VEC3"
        },
        {
            "bufferView": 7,
            "componentType": 5126,
            "count": 9216,
            "type": "VEC3"
        },
        {
            "bufferView": 8,
            "componentType": 5125,
            "count": 9216,
            "type": "SCALAR"
        }
    ],
    "asset": {
        "generator": "Luxion KeyShot",
        "version": "2.0"
    },
    "bufferViews": [
        {
            "buffer": 0,
            "byteLength": 2976768,
            "byteOffset": 0,
            "byteStride": 12
        },
        {
            "buffer": 0,
            "byteLength": 2976768,
            "byteOffset": 2976768,
            "byteStride": 12
        },
        {
            "buffer": 0,
            "byteLength": 992256,
            "byteOffset": 5953536
        },
        {
            "buffer": 0,
            "byteLength": 5648400,
            "byteOffset": 6945792,
            "byteStride": 12
        },
        {
            "buffer": 0,
            "byteLength": 5648400,
            "byteOffset": 12594192,
            "byteStride": 12
        },
        {
            "buffer": 0,
            "byteLength": 1882800,
            "byteOffset": 18242592
        },
        {
            "buffer": 0,
            "byteLength": 110592,
            "byteOffset": 20125392,
            "byteStride": 12
        },
        {
            "buffer": 0,
            "byteLength": 110592,
            "byteOffset": 20235984,
            "byteStride": 12
        },
        {
            "buffer": 0,
            "byteLength": 36864,
            "byteOffset": 20346576
        }
    ],
    "buffers": [
        {
            "byteLength": 20383440,
            "uri": "jewel resources/jewel.bin"
        }
    ],
    "cameras": [
        {
            "name": "active",
            "perspective": {
                "aspectRatio": 1,
                "yfov": 0.6911154697478635,
                "zfar": 1.3627116680145264,
                "znear": 0.9405257105827332
            },
            "type": "perspective"
        }
    ],
    "materials": [
        {
            "doubleSided": true,
            "pbrMetallicRoughness": {
                "baseColorFactor": [
                    0.7725489735603333,
                    0.5725489854812622,
                    0.09019610285758972,
                    1
                ],
                "metallicFactor": 0,
                "roughnessFactor": 0.5
            }
        },
        {
            "doubleSided": true,
            "pbrMetallicRoughness": {
                "baseColorFactor": [
                    0.7725489735603333,
                    0.5725489854812622,
                    0.09019610285758972,
                    1
                ],
                "metallicFactor": 0,
                "roughnessFactor": 0.5
            }
        },
        {
            "doubleSided": true,
            "pbrMetallicRoughness": {
                "baseColorFactor": [
                    0.03062490001320839,
                    0.25000399351119995,
                    0.03062490001320839,
                    1
                ],
                "metallicFactor": 0,
                "roughnessFactor": 0.5
            }
        }
    ],
    "meshes": [
        {
            "name": "node_id179-mesh",
            "primitives": [
                {
                    "attributes": {
                        "NORMAL": 1,
                        "POSITION": 0
                    },
                    "indices": 2,
                    "material": 0,
                    "mode": 4
                }
            ]
        },
        {
            "name": "node_id200-mesh",
            "primitives": [
                {
                    "attributes": {
                        "NORMAL": 4,
                        "POSITION": 3
                    },
                    "indices": 5,
                    "material": 1,
                    "mode": 4
                }
            ]
        },
        {
            "name": "root-mesh",
            "primitives": [
                {
                    "attributes": {
                        "NORMAL": 7,
                        "POSITION": 6
                    },
                    "indices": 8,
                    "material": 2,
                    "mode": 4
                }
            ]
        }
    ],
    "nodes": [
        {
            "camera": 0,
            "matrix": [
                0.9917295350154687,
                -2.6444698542071876e-07,
                -0.12834521284141143,
                0,
                -0.03368690981417323,
                0.9649393017914099,
                -0.2603023349432479,
                0,
                0.1238454133272171,
                0.26247307658195496,
                0.9569588303565979,
                0,
                0.07032963633537292,
                0.6218529939651489,
                1.4210286140441895,
                1
            ],
            "name": "active"
        },
        {
            "matrix": [
                1,
                0,
                0,
                0,
                0,
                1,
                0,
                0,
                0,
                0,
                1,
                0,
                0,
                -2.58801007270813,
                -1.1139500141143799,
                1
            ],
            "mesh": 0,
            "name": "node_id179"
        },
        {
            "children": [
                1
            ],
            "name": "node_id179"
        },
        {
            "children": [
                2
            ],
            "matrix": [
                0.006849450059235096,
                3.6294800498382074e-10,
                -0.001230729976668954,
                0,
                -0.0008665610221214592,
                -0.00488035986199975,
                -0.004822719842195511,
                0,
                -0.0008630959782749414,
                0.004899950232356787,
                -0.004803429823368788,
                0,
                -0.049119699746370316,
                0.07042519748210907,
                0.3831869959831238,
                1
            ],
            "name": "node_id179"
        },
        {
            "matrix": [
                1,
                0,
                0,
                0,
                0,
                1,
                0,
                0,
                0,
                0,
                1,
                0,
                -2.7609500885009766,
                8.287019729614258,
                11.509200096130371,
                1
            ],
            "mesh": 1,
            "name": "node_id200"
        },
        {
            "children": [
                4
            ],
            "name": "node_id200"
        },
        {
            "children": [
                5
            ],
            "name": "node_id200"
        },
        {
            "children": [
                6
            ],
            "matrix": [
                15.621299743652344,
                -7.940930093976721e-23,
                0,
                0,
                5.293959706871722e-23,
                15.621299743652344,
                1.0587899849992995e-22,
                0,
                4.440889980918258e-16,
                -2.117579969998599e-22,
                15.621299743652344,
                0,
                4.196169902570546e-05,
                -0.00022125200484879315,
                255.99899291992188,
                1
            ],
            "name": "node_id199"
        },
        {
            "children": [
                7
            ],
            "matrix": [
                9.693949687061831e-05,
                5.8283200314590555e-12,
                -1.741840060276445e-05,
                0,
                -5.192520025065761e-12,
                9.849199705058709e-05,
                4.057930207135296e-12,
                0,
                1.741840060276445e-05,
                -3.075669927077307e-12,
                9.693949687061831e-05,
                0,
                -0.052161201450335586,
                0.04386385962623607,
                0.3565419909334634,
                1
            ],
            "name": "node_id195"
        },
        {
            "matrix": [
                1,
                0,
                0,
                0,
                0,
                1,
                0,
                0,
                0,
                0,
                1,
                0,
                -151.62708948820156,
                243.8470001220703,
                697.3790283203125,
                1
            ],
            "mesh": 2,
            "name": "root"
        },
        {
            "children": [
                9
            ],
            "matrix": [
                2.7161500838701613e-05,
                3.5068900908208356e-12,
                -4.8804599828145e-06,
                0,
                -3.498170069587969e-12,
                2.759649942163378e-05,
                3.61044012612069e-13,
                0,
                4.8804599828145e-06,
                2.6330299702712057e-13,
                2.7161500838701613e-05,
                0,
                -0.047252800315618515,
                0.04574489966034889,
                0.38370800018310547,
                1
            ],
            "name": "root"
        },
        {
            "children": [
                10
            ],
            "name": "root"
        },
        {
            "children": [
                3,
                8,
                11
            ],
            "name": "root"
        },
        {
            "children": [
                12
            ],
            "name": "RootNode"
        },
        {
            "children": [
                13
            ],
            "matrix": [
                1.828179955482483,
                0,
                0,
                0,
                0,
                1.828179955482483,
                0,
                0,
                0,
                0,
                1.828179955482483,
                0,
                0.012399999999999998,
                0.1969,
                -0.31049999999999994,
                1
            ],
            "name": "jewel"
        },
        {
            "children": [
                14
            ],
            "name": "Default"
        }
    ],
    "scenes": [
        {
            "nodes": [
                0,
                15
            ]
        }
    ]
}
