{
	"accessors" : 
	[
		{
			"bufferView" : 2,
			"byteOffset" : 0,
			"componentType" : 5126,
			"count" : 1188,
			"max" : 
			[
				1,
				1,
				1,
				1
			],
			"min" : 
			[
				1,
				1,
				1,
				1
			],
			"name" : "accessor_color_m0-PolyGem25_-57474",
			"type" : "VEC4"
		},
		{
			"bufferView" : 2,
			"byteOffset" : 19008,
			"componentType" : 5126,
			"count" : 9712,
			"max" : 
			[
				1,
				1,
				1,
				1
			],
			"min" : 
			[
				0,
				0.006584956776350737,
				0.006584956776350737,
				1
			],
			"name" : "accessor_color_m1-PolyPaper22_-57472",
			"type" : "VEC4"
		},
		{
			"bufferView" : 2,
			"byteOffset" : 174400,
			"componentType" : 5126,
			"count" : 5990,
			"max" : 
			[
				1,
				1,
				1,
				1
			],
			"min" : 
			[
				0,
				0.006584956776350737,
				0,
				1
			],
			"name" : "accessor_color_m2-PolyPaper2_-86754",
			"type" : "VEC4"
		},
		{
			"bufferView" : 2,
			"byteOffset" : 270240,
			"componentType" : 5126,
			"count" : 324,
			"max" : 
			[
				0.5924380421638489,
				0.5924380421638489,
				0.5924380421638489,
				1
			],
			"min" : 
			[
				0.5924380421638489,
				0.5924380421638489,
				0.5924380421638489,
				1
			],
			"name" : "accessor_color_m3-PolyGlass24_-60630",
			"type" : "VEC4"
		},
		{
			"bufferView" : 2,
			"byteOffset" : 275424,
			"componentType" : 5126,
			"count" : 9978,
			"max" : 
			[
				1,
				1,
				1,
				1
			],
			"min" : 
			[
				0.006584956776350737,
				0.006584956776350737,
				0.006584956776350737,
				1
			],
			"name" : "accessor_color_m4-PolyPaper22_-11268",
			"type" : "VEC4"
		},
		{
			"bufferView" : 2,
			"byteOffset" : 435072,
			"componentType" : 5126,
			"count" : 9088,
			"max" : 
			[
				0.729918897151947,
				0.3488648533821106,
				0.7893137335777283,
				1
			],
			"min" : 
			[
				5.692175545846112e-05,
				0.006584956776350737,
				0.006584956776350737,
				1
			],
			"name" : "accessor_color_m5-PolyPaper22_-57698",
			"type" : "VEC4"
		},
		{
			"bufferView" : 0,
			"byteOffset" : 0,
			"componentType" : 5123,
			"count" : 1818,
			"max" : 
			[
				1187
			],
			"min" : 
			[
				0
			],
			"name" : "accessor_indices_0_m0-PolyGem25_-57474",
			"type" : "SCALAR"
		},
		{
			"bufferView" : 0,
			"byteOffset" : 3636,
			"componentType" : 5123,
			"count" : 14148,
			"max" : 
			[
				9711
			],
			"min" : 
			[
				0
			],
			"name" : "accessor_indices_0_m1-PolyPaper22_-57472",
			"type" : "SCALAR"
		},
		{
			"bufferView" : 0,
			"byteOffset" : 31932,
			"componentType" : 5123,
			"count" : 9030,
			"max" : 
			[
				5989
			],
			"min" : 
			[
				0
			],
			"name" : "accessor_indices_0_m2-PolyPaper2_-86754",
			"type" : "SCALAR"
		},
		{
			"bufferView" : 0,
			"byteOffset" : 49992,
			"componentType" : 5123,
			"count" : 540,
			"max" : 
			[
				323
			],
			"min" : 
			[
				0
			],
			"name" : "accessor_indices_0_m3-PolyGlass24_-60630",
			"type" : "SCALAR"
		},
		{
			"bufferView" : 0,
			"byteOffset" : 51072,
			"componentType" : 5123,
			"count" : 14184,
			"max" : 
			[
				9977
			],
			"min" : 
			[
				0
			],
			"name" : "accessor_indices_0_m4-PolyPaper22_-11268",
			"type" : "SCALAR"
		},
		{
			"bufferView" : 0,
			"byteOffset" : 79440,
			"componentType" : 5123,
			"count" : 13014,
			"max" : 
			[
				9087
			],
			"min" : 
			[
				0
			],
			"name" : "accessor_indices_0_m5-PolyPaper22_-57698",
			"type" : "SCALAR"
		},
		{
			"bufferView" : 1,
			"byteOffset" : 14256,
			"componentType" : 5126,
			"count" : 1188,
			"max" : 
			[
				0.9656646,
				1,
				0.9656646
			],
			"min" : 
			[
				-0.9656644,
				-1,
				-0.965665
			],
			"name" : "accessor_normal_m0-PolyGem25_-57474",
			"type" : "VEC3"
		},
		{
			"bufferView" : 1,
			"byteOffset" : 145056,
			"componentType" : 5126,
			"count" : 9712,
			"max" : 
			[
				1,
				1,
				1
			],
			"min" : 
			[
				-1,
				-1,
				-1
			],
			"name" : "accessor_normal_m1-PolyPaper22_-57472",
			"type" : "VEC3"
		},
		{
			"bufferView" : 1,
			"byteOffset" : 333480,
			"componentType" : 5126,
			"count" : 5990,
			"max" : 
			[
				1,
				1,
				1
			],
			"min" : 
			[
				-1,
				-1,
				-1
			],
			"name" : "accessor_normal_m2-PolyPaper2_-86754",
			"type" : "VEC3"
		},
		{
			"bufferView" : 1,
			"byteOffset" : 409248,
			"componentType" : 5126,
			"count" : 324,
			"max" : 
			[
				1,
				1,
				1
			],
			"min" : 
			[
				-1,
				-1,
				-1
			],
			"name" : "accessor_normal_m3-PolyGlass24_-60630",
			"type" : "VEC3"
		},
		{
			"bufferView" : 1,
			"byteOffset" : 532872,
			"componentType" : 5126,
			"count" : 9978,
			"max" : 
			[
				1,
				1,
				1
			],
			"min" : 
			[
				-1,
				-1,
				-1
			],
			"name" : "accessor_normal_m4-PolyPaper22_-11268",
			"type" : "VEC3"
		},
		{
			"bufferView" : 1,
			"byteOffset" : 761664,
			"componentType" : 5126,
			"count" : 9088,
			"max" : 
			[
				1,
				1,
				1
			],
			"min" : 
			[
				-1,
				-1,
				-1
			],
			"name" : "accessor_normal_m5-PolyPaper22_-57698",
			"type" : "VEC3"
		},
		{
			"bufferView" : 1,
			"byteOffset" : 0,
			"componentType" : 5126,
			"count" : 1188,
			"max" : 
			[
				1.115097,
				2.032538,
				-0.2318235
			],
			"min" : 
			[
				-1.447915,
				1.565721,
				-0.4988722
			],
			"name" : "accessor_position_m0-PolyGem25_-57474",
			"type" : "VEC3"
		},
		{
			"bufferView" : 1,
			"byteOffset" : 28512,
			"componentType" : 5126,
			"count" : 9712,
			"max" : 
			[
				1.087208,
				1.913312,
				1.718452
			],
			"min" : 
			[
				-1.65002,
				0.7559997000000001,
				-0.6945057
			],
			"name" : "accessor_position_m1-PolyPaper22_-57472",
			"type" : "VEC3"
		},
		{
			"bufferView" : 1,
			"byteOffset" : 261600,
			"componentType" : 5126,
			"count" : 5990,
			"max" : 
			[
				1.335299,
				2.351794,
				1.770014
			],
			"min" : 
			[
				-1.710006,
				0.4796391,
				-0.7699834
			],
			"name" : "accessor_position_m2-PolyPaper2_-86754",
			"type" : "VEC3"
		},
		{
			"bufferView" : 1,
			"byteOffset" : 405360,
			"componentType" : 5126,
			"count" : 324,
			"max" : 
			[
				-0.3017236,
				1.249894,
				0.6705929
			],
			"min" : 
			[
				-1.645655,
				1.111458,
				-0.364195
			],
			"name" : "accessor_position_m3-PolyGlass24_-60630",
			"type" : "VEC3"
		},
		{
			"bufferView" : 1,
			"byteOffset" : 413136,
			"componentType" : 5126,
			"count" : 9978,
			"max" : 
			[
				1.200787,
				2.084695,
				-0.3082539
			],
			"min" : 
			[
				0.9151512000000001,
				0.7339689,
				-0.5956742
			],
			"name" : "accessor_position_m4-PolyPaper22_-11268",
			"type" : "VEC3"
		},
		{
			"bufferView" : 1,
			"byteOffset" : 652608,
			"componentType" : 5126,
			"count" : 9088,
			"max" : 
			[
				1.194636,
				2.08404,
				1.659371
			],
			"min" : 
			[
				-1.418306,
				0.7340404,
				-0.6946148
			],
			"name" : "accessor_position_m5-PolyPaper22_-57698",
			"type" : "VEC3"
		}
	],
	"asset" : 
	{
		"copyright" : "Unknown",
		"generator" : "glTF 1-to-2 Upgrader for Google Blocks",
		"version" : "2.0"
	},
	"bufferViews" : 
	[
		{
			"buffer" : 0,
			"byteLength" : 105468,
			"byteOffset" : 0,
			"name" : "ushortBufferView",
			"target" : 34963
		},
		{
			"buffer" : 0,
			"byteLength" : 870720,
			"byteOffset" : 105468,
			"byteStride" : 12,
			"name" : "vec3BufferView",
			"target" : 34962
		},
		{
			"buffer" : 0,
			"byteLength" : 580480,
			"byteOffset" : 976188,
			"byteStride" : 16,
			"name" : "vec4BufferView",
			"target" : 34962
		}
	],
	"buffers" : 
	[
		{
			"byteLength" : 1556668,
			"name" : "model",
			"uri" : "model.bin"
		}
	],
	"materials" : 
	[
		{
			"alphaMode" : "OPAQUE",
			"doubleSided" : false,
			"name" : "BlocksPaper",
			"pbrMetallicRoughness" : 
			{
				"baseColorFactor" : 
				[
					1,
					1,
					1,
					1
				],
				"metallicFactor" : 0,
				"roughnessFactor" : 0.6
			}
		},
		{
			"alphaMode" : "BLEND",
			"doubleSided" : false,
			"name" : "BlocksGlass",
			"pbrMetallicRoughness" : 
			{
				"baseColorFactor" : 
				[
					0.2,
					0.2,
					1,
					0.3
				],
				"metallicFactor" : 1,
				"roughnessFactor" : 0.4
			}
		},
		{
			"alphaMode" : "OPAQUE",
			"doubleSided" : true,
			"name" : "BlocksGem",
			"pbrMetallicRoughness" : 
			{
				"baseColorFactor" : 
				[
					1,
					0.4,
					1,
					1
				],
				"metallicFactor" : 0,
				"roughnessFactor" : 0.1
			}
		}
	],
	"meshes" : 
	[
		{
			"name" : "mesh_m0-PolyGem25_-57474",
			"primitives" : 
			[
				{
					"attributes" : 
					{
						"COLOR_0" : 0,
						"NORMAL" : 12,
						"POSITION" : 18
					},
					"indices" : 6,
					"material" : 2,
					"mode" : 4
				}
			]
		},
		{
			"name" : "mesh_m1-PolyPaper22_-57472",
			"primitives" : 
			[
				{
					"attributes" : 
					{
						"COLOR_0" : 1,
						"NORMAL" : 13,
						"POSITION" : 19
					},
					"indices" : 7,
					"material" : 0,
					"mode" : 4
				}
			]
		},
		{
			"name" : "mesh_m2-PolyPaper2_-86754",
			"primitives" : 
			[
				{
					"attributes" : 
					{
						"COLOR_0" : 2,
						"NORMAL" : 14,
						"POSITION" : 20
					},
					"indices" : 8,
					"material" : 0,
					"mode" : 4
				}
			]
		},
		{
			"name" : "mesh_m3-PolyGlass24_-60630",
			"primitives" : 
			[
				{
					"attributes" : 
					{
						"COLOR_0" : 3,
						"NORMAL" : 15,
						"POSITION" : 21
					},
					"indices" : 9,
					"material" : 1,
					"mode" : 4
				}
			]
		},
		{
			"name" : "mesh_m4-PolyPaper22_-11268",
			"primitives" : 
			[
				{
					"attributes" : 
					{
						"COLOR_0" : 4,
						"NORMAL" : 16,
						"POSITION" : 22
					},
					"indices" : 10,
					"material" : 0,
					"mode" : 4
				}
			]
		},
		{
			"name" : "mesh_m5-PolyPaper22_-57698",
			"primitives" : 
			[
				{
					"attributes" : 
					{
						"COLOR_0" : 5,
						"NORMAL" : 17,
						"POSITION" : 23
					},
					"indices" : 11,
					"material" : 0,
					"mode" : 4
				}
			]
		}
	],
	"nodes" : 
	[
		{
			"matrix" : 
			[
				1,
				0,
				0,
				0,
				0,
				1,
				0,
				0,
				0,
				0,
				1,
				0,
				0,
				0,
				0,
				1
			],
			"mesh" : 1,
			"name" : "node_MeshObject-2095731264-PolyPaper22"
		},
		{
			"matrix" : 
			[
				1,
				0,
				0,
				0,
				0,
				1,
				0,
				0,
				0,
				0,
				1,
				0,
				0,
				0,
				0,
				1
			],
			"mesh" : 4,
			"name" : "node_MeshObject-931479040-PolyPaper22"
		},
		{
			"matrix" : 
			[
				1,
				0,
				0,
				0,
				0,
				1,
				0,
				0,
				0,
				0,
				1,
				0,
				0,
				0,
				0,
				1
			],
			"mesh" : 5,
			"name" : "node_MeshObject1029071040-PolyPaper22"
		},
		{
			"matrix" : 
			[
				1,
				0,
				0,
				0,
				0,
				1,
				0,
				0,
				0,
				0,
				1,
				0,
				0,
				0,
				0,
				1
			],
			"mesh" : 0,
			"name" : "node_MeshObject510350976-PolyGem25"
		},
		{
			"matrix" : 
			[
				1,
				0,
				0,
				0,
				0,
				1,
				0,
				0,
				0,
				0,
				1,
				0,
				0,
				0,
				0,
				1
			],
			"mesh" : 2,
			"name" : "node_MeshObject690842496-PolyPaper2"
		},
		{
			"matrix" : 
			[
				1,
				0,
				0,
				0,
				0,
				1,
				0,
				0,
				0,
				0,
				1,
				0,
				0,
				0,
				0,
				1
			],
			"mesh" : 3,
			"name" : "node_MeshObject910848064-PolyGlass24"
		}
	],
	"scene" : 0,
	"scenes" : 
	[
		{
			"extras" : {},
			"name" : "defaultScene",
			"nodes" : 
			[
				3,
				0,
				4,
				5,
				1,
				2
			]
		}
	]
}