{
   "accessors" : [
      {
         "bufferView" : 2,
         "byteOffset" : 0,
         "componentType" : 5126,
         "count" : 19772,
         "max" : [ 1, 0.835527777671814, 0.6661169528961182, 1 ],
         "min" : [ 0, 0.05284162610769272, 0, 1 ],
         "name" : "accessor_color_m0-PolyPaper20_-203880",
         "type" : "VEC4"
      },
      {
         "bufferView" : 0,
         "byteOffset" : 0,
         "componentType" : 5123,
         "count" : 28512,
         "max" : [ 19771 ],
         "min" : [ 0 ],
         "name" : "accessor_indices_0_m0-PolyPaper20_-203880",
         "type" : "SCALAR"
      },
      {
         "bufferView" : 1,
         "byteOffset" : 237264,
         "componentType" : 5126,
         "count" : 19772,
         "max" : [ 1, 1, 1 ],
         "min" : [ -1, -1, -1 ],
         "name" : "accessor_normal_m0-PolyPaper20_-203880",
         "type" : "VEC3"
      },
      {
         "bufferView" : 1,
         "byteOffset" : 0,
         "componentType" : 5126,
         "count" : 19772,
         "max" : [ 1.364946, 1.930769, 0.534901 ],
         "min" : [ -1.835057, 0.1799226, -1.785101 ],
         "name" : "accessor_position_m0-PolyPaper20_-203880",
         "type" : "VEC3"
      }
   ],
   "asset" : {
      "copyright" : "Unknown",
      "generator" : "glTF 1-to-2 Upgrader for Google Blocks",
      "version" : "2.0"
   },
   "bufferViews" : [
      {
         "buffer" : 0,
         "byteLength" : 57024,
         "byteOffset" : 0,
         "name" : "ushortBufferView",
         "target" : 34963
      },
      {
         "buffer" : 0,
         "byteLength" : 474528,
         "byteOffset" : 57024,
         "byteStride" : 12,
         "name" : "vec3BufferView",
         "target" : 34962
      },
      {
         "buffer" : 0,
         "byteLength" : 316352,
         "byteOffset" : 531552,
         "byteStride" : 16,
         "name" : "vec4BufferView",
         "target" : 34962
      }
   ],
   "buffers" : [
      {
         "byteLength" : 847904,
         "name" : "model",
         "uri" : "model.bin"
      }
   ],
   "cameras" : [
      {
         "perspective" : {
            "yfov" : 0.7853981633974483,
            "znear" : 0.1000000014901161
         },
         "type" : "perspective"
      }
   ],
   "extensions" : {
      "GOOGLE_lights_image_based" : {
         "lights" : [
            {
               "intensity" : 0.6000000238418579,
               "pmremTexture" : {
                  "index" : 0
               },
               "rotation" : -16
            }
         ]
      },
      "KHR_lights_punctual" : {
         "lights" : [
            {
               "color" : [ 1, 1, 1 ],
               "intensity" : 0.25,
               "name" : "headLight",
               "type" : "directional"
            },
            {
               "color" : [ 1, 1, 1 ],
               "intensity" : 0.324999988079071,
               "name" : "keyLight",
               "type" : "directional"
            }
         ]
      }
   },
   "extensionsUsed" : [
      "GOOGLE_backgrounds",
      "GOOGLE_lights_image_based",
      "GOOGLE_camera_settings",
      "KHR_lights_punctual"
   ],
   "extras" : {
      "GOOGLE_initial_camera_motion" : {
         "motionPath" : "FULL_ROTATION"
      },
      "GOOGLE_lighting_rig" : {
         "disableShadows" : false
      }
   },
   "images" : [
      {
         "uri" : "poly_pmrem_cubeuv_studio.jpg"
      }
   ],
   "materials" : [
      {
         "alphaMode" : "OPAQUE",
         "doubleSided" : false,
         "name" : "BlocksPaper",
         "pbrMetallicRoughness" : {
            "baseColorFactor" : [ 1, 1, 1, 1 ],
            "metallicFactor" : 0,
            "roughnessFactor" : 0.6
         }
      },
      {
         "alphaMode" : "BLEND",
         "doubleSided" : false,
         "name" : "BlocksGlass",
         "pbrMetallicRoughness" : {
            "baseColorFactor" : [ 0.2, 0.2, 1, 0.3 ],
            "metallicFactor" : 1,
            "roughnessFactor" : 0.4
         }
      },
      {
         "alphaMode" : "OPAQUE",
         "doubleSided" : true,
         "name" : "BlocksGem",
         "pbrMetallicRoughness" : {
            "baseColorFactor" : [ 1, 0.4, 1, 1 ],
            "metallicFactor" : 0,
            "roughnessFactor" : 0.1
         }
      }
   ],
   "meshes" : [
      {
         "name" : "mesh_m0-PolyPaper20_-203880",
         "primitives" : [
            {
               "attributes" : {
                  "COLOR_0" : 0,
                  "NORMAL" : 2,
                  "POSITION" : 3
               },
               "indices" : 1,
               "material" : 0,
               "mode" : 4
            }
         ]
      }
   ],
   "nodes" : [
      {
         "mesh" : 0,
         "name" : "node_MeshObject384823296-PolyPaper20"
      },
      {
         "children" : [ 2 ]
      },
      {
         "children" : [ 3 ],
         "extras" : {
            "isTransformNode" : 1
         },
         "rotation" : [ 0, 0, 0, 0 ],
         "translation" : [ -0.295077953301853, 0.8674472993599929, -0.6091000020503997 ]
      },
      {
         "children" : [ 0 ],
         "translation" : [ 0.295077953301853, -0.8674472993599929, 0.6091000020503997 ]
      },
      {
         "camera" : 0,
         "children" : [ 5 ],
         "rotation" : [
            -0.257179570985561,
            -0.246584999280215,
            -0.06805144247133361,
            0.9318924334789023
         ],
         "translation" : [ -1.811297360634904, 2.537775891524682, 2.279666503160159 ]
      },
      {
         "extensions" : {
            "KHR_lights_punctual" : {
               "light" : 0
            }
         },
         "extras" : {
            "isHeadLight" : 1
         },
         "name" : "headLightNode",
         "translation" : [ -2.532731574542044, 1.266365787271022, 1.266365787271022 ]
      },
      {
         "extensions" : {
            "KHR_lights_punctual" : {
               "light" : 1
            }
         },
         "extras" : {
            "isKeyLight" : 1
         },
         "name" : "keyLightNode",
         "rotation" : [ -0.7505326882858236, -0.3752663441429118, 0, 0.5439447166468927 ],
         "scale" : [ 0, 0, 2.558058890287465 ],
         "translation" : [ -2.771440041066385, 6.301130443702236, -3.054209054526127 ]
      }
   ],
   "scene" : 0,
   "scenes" : [
      {
         "extensions" : {
            "GOOGLE_backgrounds" : {
               "color" : [ 0.03529411764705882, 0.1098039215686274, 0.1607843137254902 ]
            },
            "GOOGLE_lights_image_based" : {
               "light" : 0
            }
         },
         "extras" : {
            "GOOGLE_camera_index" : {
               "cameraIndex" : 0,
               "nodeIndex" : 4
            },
            "GOOGLE_geometry_data" : {
               "stats" : {
                  "centroid" : [ -0.2133811507789203, 1.185012663127306, -0.4961501642386627 ],
                  "radius" : 2.532731574542044,
                  "stdev" : 0.7769206282025199
               },
               "visualCenterPoint" : [ -0.295077953301853, 0.8674472993599929, -0.6091000020503997 ]
            }
         },
         "name" : "defaultScene",
         "nodes" : [ 1, 4, 6 ]
      }
   ]
}
